Coordinates
nRows=7
nColumns=24

# SIMM Motion File Header:
name Coordinates
datacolumns 24
datarows 7
otherdata 1
range 1.01000000000000000000 1.01600000000000000000
endheader
time	pelvis_tx	pelvis_ty	pelvis_tz	pelvis_tilt	pelvis_list	pelvis_rotation	hip_flexion_r	hip_adduction_r	hip_rotation_r	knee_angle_r	ankle_angle_r	subtalar_angle_r	mtp_angle_r	hip_flexion_l	hip_adduction_l	hip_rotation_l	knee_angle_l	ankle_angle_l	subtalar_angle_l	mtp_angle_l	lumbar_extension	lumbar_bending	lumbar_rotation
      1.01000000000000000000	      0.58966484942118047000	      1.04552606097731380000	      0.04977990071843300300	      5.21074564105919700000	     -0.01230341628196619400	      0.23386148939998280000	     -4.01489277262067820000	      1.84365775730329020000	     -3.96573625119478250000	    -10.93048414585723200000	      8.08117374069376380000	      0.30510106384446917000	      0.95371586718504975000	     18.93455575861926800000	     -3.21514616095732730000	     -4.70707662814520940000	    -55.39744235298996200000	      2.20100021662850410000	     -1.49221610109644540000	     -1.96187643295343750000	    -16.32974140877222200000	      1.73846463475725430000	      0.87467472336047192000
      1.01100000000000010000	      0.58953094206467183000	      1.04553961482436960000	      0.04985452335740277200	      5.21087452130666670000	     -0.01441752202256840200	      0.21816086728959619000	     -4.09992891259243390000	      1.85036163137918460000	     -3.95838802641764250000	    -10.88336329493264300000	      8.09744448728632450000	      0.30526175910494185000	      0.94983331856260056000	     18.97997612699002400000	     -3.21833563290733250000	     -4.75013008444671490000	    -55.14130261315765600000	      2.18732457122793900000	     -1.48608217152024920000	     -1.94902366467126180000	    -16.33827526509990200000	      1.73172358403747610000	      0.89483830620960236000
      1.01200000000000000000	      0.58939696700624900000	      1.04555065141493840000	      0.04992829791816152200	      5.21088466706139460000	     -0.01725349161091442200	      0.20272460149899141000	     -4.18474617451756710000	      1.85768576949322180000	     -3.95113423041353060000	    -10.83639737329443500000	      8.11324811930537320000	      0.30532659339348855000	      0.94680440430485624000	     19.02383435976553000000	     -3.22279821707060020000	     -4.79473684967013810000	    -54.88131124233103000000	      2.17225568906438630000	     -1.47981934196767040000	     -1.93553395587110780000	    -16.34666714773919700000	      1.72577620381213340000	      0.91475073281796671000
      1.01300000000000010000	      0.58926296938052136000	      1.04556084892001170000	      0.05000178978618328300	      5.21085523465187440000	     -0.02033008248184326600	      0.18737645448164292000	     -4.26949047709385090000	      1.86521666228664260000	     -3.94391191066709190000	    -10.78948309475167600000	      8.12889604646658630000	      0.30535947402472641000	      0.94406003483534684000	     19.06717188067595700000	     -3.22768517197162510000	     -4.83986138453421510000	    -54.62003599450622500000	      2.15672239464649840000	     -1.47351354575629510000	     -1.92183193356495650000	    -16.35501170581569500000	      1.72009338041826810000	      0.93457944067941479000
      1.01400000000000000000	      0.58912895985080271000	      1.04557008185674390000	      0.05007497443259795900	      5.21076355906155800000	     -0.02369504414481012400	      0.17211554798116613000	     -4.35413685462068840000	      1.87299972986132520000	     -3.93669907591337690000	    -10.74262211881484300000	      8.14421898422270910000	      0.30531463164083572000	      0.94188665708925834000	     19.10995178982372500000	     -3.23305316870430160000	     -4.88554807897773100000	    -54.35735664576991900000	      2.14071167025376190000	     -1.46724842815000910000	     -1.90798873102355840000	    -16.36328203968292900000	      1.71472707754568470000	      0.95433150643984654000
      1.01500000000000010000	      0.58899491460911035000	      1.04557642108845440000	      0.05014723741419144200	      5.21048515392884860000	     -0.02792511818390065700	      0.15711636303129295000	     -4.43848945699926300000	      1.88153932177980530000	     -3.92951469613782530000	    -10.69592105069574700000	      8.15856695376356460000	      0.30503662021155742000	      0.94142625451344375000	     19.15105886368353800000	     -3.23986429093194990000	     -4.93292125215961800000	    -54.09046499429883400000	      2.12326865593645350000	     -1.46110534635898600000	     -1.89372198777640470000	    -16.37132970092236700000	      1.71031033623694850000	      0.97385364589724566000
      1.01600000000000000000	      0.58886086936741799000	      1.04558276032016480000	      0.05021950039578491200	      5.21020674879613920000	     -0.03215519222299025700	      0.14211717808142310000	     -4.52284205937781800000	      1.89007891369828360000	     -3.92233031636227560000	    -10.64921998257666000000	      8.17291492330441830000	      0.30475860878227917000	      0.94096585193762938000	     19.19216593754334000000	     -3.24667541315959700000	     -4.98029442534149340000	    -53.82357334282780700000	      2.10582564161914920000	     -1.45496226456796430000	     -1.87945524452925380000	    -16.37937736216180400000	      1.70589359492821350000	      0.99337578535464033000
